<svg width="30" height="40" viewBox="0 0 30 40" fill="none" xmlns="http://www.w3.org/2000/svg">
<path d="M6.94843 40C5.0908 39.9647 3.45545 39.3114 2.11163 37.9938C0.989033 36.893 0.308631 35.5505 0.0871363 33.9844C0.036471 33.6265 -0.0110098 33.2679 0.00225335 32.9069C0.0460218 31.7174 0.326671 30.5935 0.931736 29.5569C1.66519 28.3 2.3875 27.0369 3.11458 25.7763C4.15442 23.9733 5.19398 22.1706 6.23355 20.3673C7.32166 18.4803 8.40844 16.5924 9.49761 14.7061C10.6 12.7967 11.7065 10.8895 12.8086 8.97986C13.5625 7.67371 14.3052 6.36145 15.0665 5.05954C15.4804 4.35182 15.8419 3.61094 16.3289 2.94858C17.5096 1.34373 19.084 0.381625 21.0596 0.0826739C21.4 0.0312128 21.7435 -0.00831138 22.0841 0.00150335C24.0749 0.059596 25.8063 0.747688 27.1814 2.21194C28.231 3.32976 28.8539 4.65714 29.0228 6.19566C29.1674 7.5119 28.9324 8.76102 28.3883 9.95073C28.1509 10.4696 27.826 10.9486 27.5387 11.4447C26.2882 13.6047 25.037 15.7642 23.786 17.924C22.3671 20.3737 20.9466 22.8226 19.5307 25.2739C18.7012 26.7095 17.8794 28.1494 17.0534 29.5868C15.8668 31.6511 14.6787 33.7149 13.4925 35.7794C13.1407 36.3914 12.7869 37.0007 12.324 37.5397C11.3009 38.7307 10.0258 39.4979 8.49279 39.8353C7.99251 39.9454 7.48453 39.9899 6.94817 39.9997L6.94843 40Z" fill="white"/>
</svg>
