<svg xmlns="http://www.w3.org/2000/svg" viewBox="0 0 2872 1508.08">
    <path
        d="M2038.24,1507.92c-70.03-1.33-131.68-25.96-182.34-75.63-42.32-41.5-67.97-92.11-76.32-151.15-1.91-13.49-3.7-27.01-3.2-40.62,1.65-44.84,12.23-87.21,35.04-126.29,27.65-47.38,54.88-95,82.29-142.52,39.2-67.97,78.39-135.93,117.58-203.91,41.02-71.14,81.99-142.31,123.05-213.42,41.56-71.98,83.27-143.88,124.82-215.87,28.42-49.24,56.42-98.71,85.12-147.79,15.6-26.68,29.23-54.61,47.59-79.58,44.51-60.5,103.86-96.77,178.34-108.04,12.83-1.94,25.78-3.43,38.62-3.06,75.05,2.19,140.32,28.13,192.16,83.33,39.57,42.14,63.05,92.18,69.42,150.18,5.45,49.62-3.41,96.71-23.92,141.56-8.95,19.56-21.2,37.62-32.03,56.32-47.14,81.43-94.31,162.84-141.47,244.26-53.49,92.35-107.04,184.67-160.42,277.08-31.27,54.12-62.25,108.4-93.39,162.59-44.73,77.82-89.52,155.62-134.24,233.45-13.26,23.07-26.6,46.04-44.05,66.36-38.57,44.9-86.64,73.82-144.43,86.54-18.86,4.15-38.01,5.83-58.23,6.2Z" />
    <path
        d="M1094.36,267.92c-.68,43.49-12.44,87.73-36.6,128.88-33.49,57.05-66.16,114.59-99.23,171.89-42.05,72.85-84.17,145.65-126.21,218.49-35.23,61.04-70.4,122.11-105.58,183.18-39.16,67.99-78.26,136.01-117.45,203.98-38.69,67.1-77.23,134.3-116.27,201.2-33.18,56.86-81.58,95.84-143.37,117.8-34.81,12.37-71.11,17.04-107.94,13.66-57.53-5.28-108.93-26.14-152.62-64.3-33.16-28.97-57.48-64.31-72.83-105.74-12.77-34.47-17.91-70.13-15.78-106.67,1.85-31.72,9.59-62.23,22.57-91.32,10.73-24.05,25.16-46.06,38.16-68.85,33.42-58.63,67.27-117.01,101-175.47,41.37-71.7,82.81-143.37,124.2-215.06,33.75-58.44,67.44-116.91,101.24-175.33,39.79-68.77,79.66-137.5,119.5-206.25,32.51-56.09,64.79-112.31,97.61-168.22,26.44-45.04,63.24-79.37,110.17-102.41,31.93-15.68,65.71-24.24,101.43-26.42,47.67-2.9,92.74,6.29,134.53,28.52,76.99,40.96,123.55,104.9,139.49,190.88,2.67,14.41,3.87,28.93,4,47.53Z" />
    <path
        d="M889.52,1250.16c-.09-54.97,13.96-100.2,38.84-142.78,46.47-79.5,92.08-159.5,138.13-239.25,46.54-80.61,93.21-161.16,139.75-241.77,41.22-71.41,82.31-142.89,123.52-214.3,48.67-84.37,97.44-168.7,146.08-253.08,12.29-21.32,23.93-43.05,39.75-62.09,40.13-48.28,90.8-78.97,152.45-91.48,17.31-3.51,34.86-5.73,52.36-5.31,68.04,1.62,127.84,24.54,177.96,71.31,38.79,36.2,63.83,80.34,76.25,131.75,5.73,23.7,8.28,47.84,6.87,72.15-2.41,41.72-13.44,81.06-34.46,117.42-41.76,72.25-83.44,144.54-125.15,216.81-43.54,75.44-87.11,150.87-130.63,226.32-35.88,62.2-71.67,124.45-107.58,186.63-41.56,71.98-83.22,143.9-124.8,215.87-25.61,44.33-51.37,88.57-76.65,133.1-33.04,58.21-80.69,99.18-143.68,121.62-35.12,12.51-71.72,17.37-108.9,13.91-56.89-5.28-107.58-26.4-150.53-64.19-45.96-40.44-74.54-91.15-85.51-151.6-2.8-15.42-4.46-30.88-4.09-41.04Z" />
</svg>