<svg width="38" height="38" viewBox="0 0 38 38" fill="none" xmlns="http://www.w3.org/2000/svg">
<g clip-path="url(#clip0_12_131)">
<path fill-rule="evenodd" clip-rule="evenodd" d="M18.9995 0.882202C29.0059 0.882202 37.1171 9.19807 37.1171 19.4581C37.1171 27.6636 31.9319 34.6244 24.7373 37.083C23.8188 37.266 23.4927 36.6859 23.4927 36.1913C23.4927 35.5789 23.5144 33.5788 23.5144 31.093C23.5144 29.361 22.9346 28.2305 22.2842 27.6544C26.319 27.1942 30.5585 25.6232 30.5585 18.4885C30.5585 16.4593 29.8556 14.8035 28.6924 13.5026C28.8808 13.0334 29.5023 11.144 28.5149 8.58574C28.5149 8.58574 26.9966 8.08799 23.5379 10.4904C22.0903 10.0791 20.5395 9.87219 18.9995 9.86494C17.4595 9.87219 15.9104 10.0791 14.4646 10.4904C11.0024 8.08799 9.48047 8.58574 9.48047 8.58574C8.49669 11.144 9.11812 13.0334 9.30473 13.5026C8.14701 14.8035 7.43862 16.4593 7.43862 18.4885C7.43862 25.6051 11.6691 27.2002 15.693 27.6694C15.1749 28.1332 14.7056 28.9514 14.5425 30.1526C13.5098 30.6273 10.8864 31.4488 9.2703 28.6098C9.2703 28.6098 8.31188 26.825 6.49287 26.6945C6.49287 26.6945 4.7264 26.6711 6.36967 27.8234C6.36967 27.8234 7.55638 28.3941 8.38073 30.541C8.38073 30.541 9.44424 33.8565 14.4846 32.7332C14.4936 34.2858 14.5099 35.7492 14.5099 36.1913C14.5099 36.6822 14.1766 37.2569 13.2725 37.0848C6.07254 34.6298 0.881836 27.6654 0.881836 19.4581C0.881836 9.19807 8.99492 0.882202 18.9995 0.882202Z" fill="#707D77"/>
</g>
<defs>
<clipPath id="clip0_12_131">
<rect width="36.2353" height="36.2353" fill="white" transform="translate(0.881836 0.882202)"/>
</clipPath>
</defs>
</svg>
