<svg width="34" height="34" viewBox="0 0 34 34" fill="none" xmlns="http://www.w3.org/2000/svg">
<g clip-path="url(#clip0_12_118)">
<path fill-rule="evenodd" clip-rule="evenodd" d="M33.4717 33.4707H26.8835V21.9429C26.8835 18.7805 25.4884 17.0162 22.9865 17.0162C20.2639 17.0162 18.6482 18.8546 18.6482 21.9429V33.4707H12.0599V12.0589H18.6482V14.4668C18.6482 14.4668 20.7152 10.8397 25.3731 10.8397C30.0326 10.8397 33.4717 13.6831 33.4717 19.5664V33.4707ZM4.55264 8.63449C2.33076 8.63449 0.530518 6.81954 0.530518 4.58118C0.530518 2.34448 2.33076 0.52948 4.55264 0.52948C6.77288 0.52948 8.5731 2.34448 8.5731 4.58118C8.57475 6.81954 6.77288 8.63449 4.55264 8.63449ZM0.530518 33.4707H8.76581V12.0589H0.530518V33.4707Z" fill="#707D77"/>
</g>
<defs>
<clipPath id="clip0_12_118">
<rect width="32.9412" height="32.9412" fill="white" transform="translate(0.530518 0.52948)"/>
</clipPath>
</defs>
</svg>
